<?xml version="1.0" encoding="utf-8"?>
<!-- Generator: Adobe Illustrator 19.1.0, SVG Export Plug-In . SVG Version: 6.00 Build 0)  -->
<svg version="1.1" id="Capa_1" xmlns="http://www.w3.org/2000/svg" xmlns:xlink="http://www.w3.org/1999/xlink" x="0px" y="0px"
	 viewBox="-357 260.1 283.5 481.9" style="enable-background:new -357 260.1 283.5 481.9;" xml:space="preserve">
<style type="text/css">
	.st0{fill:#192A3D;}
	.st1{fill:#C85742;}
	.st2{fill:#FFFFFF;}
</style>
<rect x="-1544.5" y="51.7" class="st0" width="1242.8" height="2045.2"/>
<g>
	<g>
		<path class="st1" d="M-807.9,708.7c-10.2,0-18.6-8.4-18.6-18.6v-40.8c0-19.2-15.6-35-35-35h-53.6v-36c0-4.2-3.4-7.4-7.4-7.4
			c-4.2,0-7.4,3.4-7.4,7.4v36h-53.8c-19.2,0-35,15.6-35,35v40.6c0,10.2-8.4,18.6-18.6,18.6c-4.6,0-8.2,3.6-8.2,8.2s3.6,8.2,8.2,8.2
			c10.2,0,18.6,8.4,18.6,18.6v40.8c0,19.2,15.6,35,35,35h122.4c19.2,0,35-15.6,35-35v-40.6c0-10.2,8.4-18.6,18.6-18.6
			c4.6,0,8.2-3.6,8.2-8.2C-799.7,712.3-803.3,708.7-807.9,708.7z"/>
		<path class="st1" d="M-804.7,884.1v-2.2c0-19.2-15.6-35-35-35h-166.6c-19.2,0-35,15.6-35,35v2.2
			c-72.6,21.2-116.6,105.6-98.8,194.4c2,9.8,10,16.6,19.4,17.6l2,9.2c-4.4,2.2-8.2,5.8-11,10.2c-3.8,6.4-5,13.8-3.2,21
			c0.4,2,2.2,3.4,4.2,3.4c0.4,0,0.6,0,1-0.2c2.4-0.6,3.8-3,3.2-5.4c-1.2-4.8-0.4-10,2.2-14.2c2.6-4.2,6.8-7.2,11.6-8.4
			c4.8-1.2,10-0.4,14.2,2.2c4.2,2.6,7.2,6.8,8.4,11.6c0.6,2.4,3,3.8,5.4,3.2s3.8-3,3.2-5.4c-1.8-7.2-6.2-13.2-12.4-17.2
			c-4-2.4-8.4-3.8-13-4l-2-9.4c7.6-4.8,12-13.8,10-23.2c-12-60.4,12.2-117.8,55.4-138.4c0,14,0,36.6,0,44.8v93.8
			c0,19.2,15.6,35,35,35h166.6c19.2,0,35-15.6,35-35v-93.8c0-8.2,0-30.8,0-44.8c43.2,20.6,67.4,78,55.4,138.4
			c-1.8,9.4,2.4,18.4,10,23.2l-2,9.4c-12,0.6-22.6,9-25.4,21.2c-0.6,2.4,0.8,4.8,3.2,5.4c2.4,0.6,4.8-1,5.4-3.2
			c2.4-10,12.6-16.4,22.6-14c4.8,1.2,9,4.2,11.6,8.4c2.6,4.2,3.4,9.4,2.2,14.2c-0.6,2.4,0.8,4.8,3.2,5.4c0.4,0,0.6,0.2,1,0.2
			c2,0,3.8-1.4,4.4-3.4c1.8-7.2,0.6-14.6-3.4-21c-2.6-4.4-6.4-7.8-11-10.2l2-9.2c9.4-1,17.4-8,19.4-17.6
			C-688.1,989.9-732.1,905.3-804.7,884.1z"/>
		<g>
			<path class="st1" d="M-832.3,1188.1v-65.4h-68v65.4c-8,0.2-14.4,6.8-14.4,15c0,8.2,6.4,14.6,14.4,15v139.4h68v-139.4
				c8-0.2,14.6-6.8,14.6-15C-817.7,1194.9-824.1,1188.3-832.3,1188.1z M-832.7,1210.5h-67c-4.2,0-7.4-3.4-7.4-7.4
				c0-4.2,3.4-7.4,7.4-7.4h67c4.2,0,7.4,3.4,7.4,7.4C-825.1,1207.1-828.5,1210.5-832.7,1210.5z"/>
		</g>
		<g>
			<g>
				<g>
					<path class="st2" d="M-921.5,736.9c-22.6,0-41-18.4-41-41c0-22.6,18.4-41,41-41s41,18.4,41,41
						C-880.5,718.5-898.9,736.9-921.5,736.9z M-921.5,669.7c-14.4,0-26,11.6-26,26c0,14.4,11.6,26,26,26s26-11.6,26-26
						C-895.5,681.5-907.3,669.7-921.5,669.7z"/>
				</g>
			</g>
			<g>
				<g>
					<path class="st2" d="M-888.1,777.3h-67c-4.2,0-7.4-3.4-7.4-7.4c0-4.2,3.4-7.4,7.4-7.4h67c4.2,0,7.4,3.4,7.4,7.4
						C-880.5,774.1-883.9,777.3-888.1,777.3z"/>
				</g>
			</g>
		</g>
		<g>
			<path class="st1" d="M-1028.3,1203.1c0,8.2,6.6,14.8,14.6,15v139.4h68v-139.4c8-0.2,14.4-6.8,14.4-15c0-8-6.4-14.6-14.4-15v-65.4
				h-68v65.4C-1021.9,1188.3-1028.3,1194.9-1028.3,1203.1z M-1020.9,1203.1c0-4.2,3.4-7.4,7.4-7.4h67c4.2,0,7.4,3.4,7.4,7.4
				c0,4.2-3.4,7.4-7.4,7.4h-66.8C-1017.5,1210.5-1020.9,1207.1-1020.9,1203.1z"/>
		</g>
		<g>
			<path class="st2" d="M-866.3,1318.5c-25.8,0-46.2,13.6-46.2,31c0,0.2,0,0.6,0,0.8v8c0,1.2,0.4,2.4,1.2,3.2c0.8,0.8,2,1.4,3.2,1.4
				h83.4c2.4,0,4.4-2,4.4-4.4v-8.8C-820.1,1332.1-840.3,1318.5-866.3,1318.5z"/>
			<path class="st2" d="M-933.7,1350.3c0-0.2,0-0.4,0-0.8c0-17.4-20.2-31-46.2-31s-46.2,13.6-46.2,31.2v8.8c0,2.4,2,4.4,4.4,4.4
				h83.8h0.2c2.4,0,4.4-2,4.4-4.4c0-0.4,0-1-0.2-1.4L-933.7,1350.3z"/>
		</g>
		<g>
			<g>
				<path class="st2" d="M-1088.1,986.7l-45.2-20c-3.8-1.6-5.4-6-3.8-9.8s6-5.4,9.8-3.8l45.2,20c3.8,1.6,5.4,6,3.8,9.8
					C-1079.9,986.7-1084.5,988.3-1088.1,986.7z"/>
			</g>
		</g>
		<g>
			<g>
				<path class="st2" d="M-1075.7,966.7l-42.2-25.8c-3.6-2.2-4.6-6.8-2.4-10.2c2.2-3.6,6.8-4.6,10.2-2.4l42.2,25.6
					c3.6,2.2,4.6,6.8,2.4,10.2C-1067.7,967.7-1072.3,968.7-1075.7,966.7z"/>
			</g>
		</g>
		<g>
			<g>
				<path class="st2" d="M-1060.3,948.1l-39-30.2c-3.2-2.6-3.8-7.2-1.4-10.4c2.6-3.2,7.2-3.8,10.4-1.4l39.2,30.2
					c3.2,2.6,3.8,7.2,1.4,10.4C-1052.3,950.1-1057.1,950.7-1060.3,948.1z"/>
			</g>
		</g>
		<g>
			<g>
				<path class="st2" d="M-757.7,986.7l45.2-20c3.8-1.6,5.4-6,3.8-9.8c-1.6-3.8-6-5.4-9.8-3.8l-45.2,20c-3.8,1.6-5.4,6-3.8,9.8
					C-765.9,986.7-761.5,988.3-757.7,986.7z"/>
			</g>
		</g>
		<g>
			<g>
				<path class="st2" d="M-770.1,966.7l42.2-25.6c3.6-2.2,4.6-6.8,2.4-10.2c-2.2-3.6-6.8-4.6-10.2-2.4l-42.2,25.4
					c-3.4,2.2-4.6,6.8-2.4,10.2C-778.3,967.7-773.7,968.7-770.1,966.7z"/>
			</g>
		</g>
		<g>
			<g>
				<path class="st2" d="M-785.7,948.1l39-30.2c3.2-2.6,3.8-7.2,1.4-10.4c-2.6-3.2-7.2-3.8-10.4-1.4l-39,30.2
					c-3.2,2.6-3.8,7.2-1.4,10.4C-793.5,950.1-788.9,950.7-785.7,948.1z"/>
			</g>
		</g>
	</g>
	<g>
		<g>
			<path class="st2" d="M-1017.4,1466.2c-11.2,0-21.2,5.4-27.6,13.6c-2.4-8.2-9.8-14.2-18.8-14.2c-10.8,0-19.4,8.8-19.4,19.6
				c0,2.2,1.8,4,4,4c2.2,0,4-1.8,4-4c0-6.4,5.2-11.6,11.6-11.6s11.6,5.2,11.6,11.6v15.8v72.4c0,2.2,1.8,4,4,4l0,0c2.2,0,4-1.8,4-4
				v-50.2c6.4,7.6,16,12.6,26.8,12.6c19.2,0,34.6-15.6,34.6-34.6C-982.8,1481.8-998.4,1466.2-1017.4,1466.2z M-1017.4,1527.6
				c-14.8,0-26.6-12-26.6-26.6c0-14.8,12-26.6,26.6-26.6c14.8,0,26.6,12,26.6,26.6S-1002.8,1527.6-1017.4,1527.6z"/>
			<path class="st2" d="M-964.2,1477.6c0-2.2-1.8-4-4-4s-4,1.8-4,4v38.8c0,10.6,8.6,19.4,19.4,19.4c10.6,0,19.4-8.6,19.4-19.4V1501
				c0-14.8,12-26.6,26.6-26.6c14.8,0,26.6,12,26.6,26.6l0,0v15.2c0,10.8,8.8,19.6,19.6,19.6c8.8,0,16.2-6,18.6-14
				c6.4,8.4,16.4,13.8,27.6,13.8s21.2-5.4,27.6-13.8c2.4,8,9.8,14,18.6,14c6.4,0,12-3.2,15.6-7.8c3.6,4.6,9,7.6,15.4,7.6
				c8.8,0,16.2-6,18.4-14c6.4,8.4,16.4,13.8,27.6,13.8c11.2,0,21.2-5.4,27.6-13.8c2.4,8,9.8,14,18.6,14c10.8,0,19.6-8.8,19.6-19.6
				c0-2.2-1.8-4-4-4s-4,1.8-4,4c0,6.4-5.2,11.6-11.6,11.6c-6.4,0-11.6-5.2-11.6-11.6v-14.2c0-0.4,0-0.8,0-1
				c0-19.2-15.6-34.6-34.6-34.6c-19.2,0-34.6,15.6-34.6,34.6c0,0.4,0,0.8,0,1.2v14.4l0,0l0,0c0,6.2-5,11.4-11.4,11.4
				c-6.2,0-11.4-5-11.4-11.4v-39c0-2.2-1.8-4-4-4s-4,1.8-4,4v38.8c0,6.4-5.2,11.6-11.6,11.6c-6.4,0-11.6-5.2-11.6-11.6V1502
				c0-0.4,0-0.8,0-1c0-0.4,0-0.8,0-1.2v-71.6c0-2.2-1.8-4-4-4l0,0c-2.2,0-4,1.8-4,4v50.6c-6.4-7.6-16-12.6-26.6-12.6
				c-19.2,0-34.6,15.6-34.6,34.6v15.4c0,6.4-5.2,11.6-11.6,11.6s-11.6-5.2-11.6-11.6v-15.8v-0.2c-0.4-18.8-15.8-34-34.6-34
				c-10.8,0-20.4,4.8-26.6,12.6v-8.6c0-2.2-1.8-4-4-4s-4,1.8-4,4v46.2c0,6.2-5,11.4-11.4,11.4c-6.2,0-11.4-5-11.4-11.4V1477.6z
				 M-691.2,1474c14.6,0,26.4,11.6,26.6,26.2c0,0,0,0,0,0.2v1.2c-0.6,14.2-12.2,25.6-26.6,25.6c-14.4,0-26-11.4-26.6-25.6l0,0
				c0,0,0,0,0-0.2c0-0.2,0-0.6,0-0.8C-718,1486-706,1474-691.2,1474z M-814.4,1474.2c14.4,0,26,11.4,26.6,25.4v0.8l0,0l0,0v1.6
				c-0.6,14.2-12.2,25.6-26.6,25.6c-14.8,0-26.6-12-26.6-26.6C-841,1486.2-829,1474.2-814.4,1474.2z"/>
			<path class="st2" d="M-968.6,1462.8c2.6,0,4.6-2,4.6-4.6c0-2.4-2-4.6-4.6-4.6c-2.6,0-4.6,2-4.6,4.6S-971.2,1462.8-968.6,1462.8z"
				/>
			<path class="st2" d="M-753,1463c2.6,0,4.6-2,4.6-4.6s-2-4.6-4.6-4.6c-2.6,0-4.6,2-4.6,4.6S-755.6,1463-753,1463z"/>
			<path class="st2" d="M-1011.4,1574.2c-0.4,0.2-0.8,0.6-1.2,0.6c-0.6,0.2-1.2,0.2-1.8,0.2c-0.6,0-1.2,0-1.8-0.2
				c-0.6-0.2-1-0.4-1.4-0.6c-0.4-0.4-0.8-0.6-1-1.2c-0.2-0.4-0.4-1-0.4-1.8v-0.2c0,0,0-0.2-0.2-0.2h-2c-0.2,0-0.2,0-0.2,0.2v0.2
				c0,1,0.2,1.8,0.4,2.6c0.4,0.8,0.8,1.4,1.4,1.8c0.6,0.4,1.4,0.8,2.2,1.2c0.8,0.2,1.6,0.4,2.6,0.4c2,0,3.6-0.4,4.8-1.4
				c1.2-1,1.8-2.2,1.8-4c0-0.8-0.2-1.6-0.4-2.2c-0.4-0.6-0.8-1-1.2-1.4s-1-0.6-1.6-0.8c-0.6-0.2-1.2-0.4-1.8-0.6s-1.2-0.4-1.8-0.4
				c-0.6-0.2-1.2-0.4-1.6-0.6c-0.4-0.2-0.8-0.4-1.2-0.8c-0.2-0.2-0.4-0.6-0.6-1.2c0-0.4,0-0.8,0-1.2c0.2-0.4,0.4-0.8,0.6-1
				c0.2-0.4,0.6-0.6,1.2-0.8c0.6-0.2,1.2-0.4,2-0.4c0.6,0,1,0,1.4,0.2c0.4,0.2,0.8,0.4,1.2,0.6s0.6,0.6,0.8,1c0.2,0.4,0.4,1,0.4,1.6
				v0.2c0,0.2,0.2,0.2,0.2,0.2h2c0.2,0,0.2,0,0.2-0.2v-0.2c0-0.8-0.2-1.4-0.4-2.2c-0.2-0.6-0.6-1.2-1.2-1.8c-0.6-0.4-1.2-0.8-2-1.2
				s-1.6-0.4-2.6-0.4s-1.8,0.2-2.6,0.4c-0.8,0.2-1.4,0.6-2,1.2c-0.6,0.4-1,1-1.2,1.6s-0.4,1.2-0.4,1.8c0,0.8,0.2,1.6,0.6,2.2
				c0.4,0.6,0.8,1,1.2,1.4c0.6,0.4,1.2,0.6,1.8,0.8c0.6,0.2,1.2,0.4,2,0.6c0.6,0.2,1.2,0.2,2,0.4c0.6,0.2,1.2,0.4,1.6,0.6
				c0.4,0.2,0.8,0.6,1,0.8c0.2,0.4,0.4,0.8,0.4,1.4c0,0.4,0,0.8-0.2,1.2C-1011,1573.6-1011.2,1573.8-1011.4,1574.2z"/>
			<path class="st2" d="M-987.4,1559.2c-1-0.4-2.2-0.8-3.6-0.8c-1.4,0-2.6,0.2-3.6,0.8c-1,0.4-2,1.2-2.6,2c-0.6,0.8-1.2,1.8-1.6,3
				c-0.4,1.2-0.6,2.4-0.6,3.6s0.2,2.4,0.6,3.6c0.4,1.2,0.8,2.2,1.6,3c0.8,0.8,1.6,1.6,2.6,2s2.2,0.8,3.6,0.8c1.4,0,2.6-0.2,3.6-0.8
				c1-0.6,2-1.2,2.6-2c0.6-0.8,1.2-1.8,1.6-3c0.4-1.2,0.6-2.4,0.6-3.6s-0.2-2.6-0.6-3.6c-0.4-1.2-0.8-2.2-1.6-3
				C-985.4,1560.4-986.6,1559.6-987.4,1559.2z M-985.4,1570.6c-0.2,0.8-0.6,1.6-1,2.2c-0.4,0.6-1,1.2-1.8,1.6s-1.6,0.6-2.6,0.6
				s-2-0.2-2.8-0.6s-1.4-1-1.8-1.6c-0.4-0.6-0.8-1.4-1-2.2c-0.2-0.8-0.4-1.8-0.4-2.8s0.2-1.8,0.4-2.8c0.2-0.8,0.6-1.6,1-2.4
				c0.4-0.6,1-1.2,1.8-1.6s1.6-0.6,2.6-0.6s1.8,0.2,2.6,0.4c0.8,0.4,1.4,0.8,1.8,1.4c0.6,0.6,1,1.4,1.2,2.2c0.2,1,0.4,2,0.4,3
				C-985.2,1568.8-985.4,1569.8-985.4,1570.6z"/>
			<path class="st2" d="M-961.8,1561C-961.4,1561-961.4,1561-961.8,1561l0.2-2c0-0.2,0-0.2-0.2-0.2h-11.4c-0.2,0-0.2,0.2-0.2,0.2
				v17.6c0,0.2,0,0.2,0.2,0.2h2c0.2,0,0.2,0,0.2-0.2v-8h8.4c0.2,0,0.2,0,0.2-0.2v-1.8c0-0.2,0-0.2-0.2-0.2h-8.4v-5.4H-961.8z"/>
			<path class="st2" d="M-948.8,1576.8h2c0.2,0,0.2,0,0.2-0.2V1561h5.2c0.2,0,0.2,0,0.2-0.2v-1.8c0-0.2,0-0.2-0.2-0.2h-12.8
				l-0.2,0.2v1.8c0,0.2,0,0.2,0.2,0.2h5.2L-948.8,1576.8C-949,1576.8-948.8,1576.8-948.8,1576.8z"/>
			<path class="st2" d="M-915,1558.8C-915,1558.8-915.2,1559-915,1558.8l-3.6,13.8l-3.6-13.4v-0.2l-0.2-0.2h-2.2c0,0-0.2,0-0.2,0.2
				l-3.6,13.6l-3.4-13.4v-0.2l-0.2-0.2h-2h-0.2v0.2l4.4,17.4v0.2c0,0,0,0.2,0.2,0.2h2c0,0,0.2,0,0.2-0.2l3.6-14l3.6,13.8v0.2
				c0,0,0,0.2,0.2,0.2h2c0,0,0.2,0,0.2-0.2l4.6-17.6v-0.2c0,0,0,0-0.2,0C-913.4,1558.8-915,1558.8-915,1558.8z"/>
			<path class="st2" d="M-896.4,1559C-896.4,1559-896.6,1558.8-896.4,1559l-2.2-0.2c0,0-0.2,0-0.2,0.2l-6.8,17.2l-0.2,0.2v0.2
				c0,0,0,0,0.2,0h2c0,0,0.2,0,0.2-0.2l2-5.2h7.2l1.8,5.2v0.2l0.2,0.2h2l0,0l0,0c0.2,0,0.2,0,0.2-0.2c0,0,0,0,0-0.2L-896.4,1559
				L-896.4,1559z M-900.4,1569.2l2.8-7.4l2.8,7.4H-900.4z"/>
			<path class="st2" d="M-868.6,1566.6c0.4-0.6,0.8-1.6,0.8-2.8c0-1.8-0.6-3-1.6-3.8s-2.6-1.2-4.6-1.2h-7c-0.2,0-0.2,0.2-0.2,0.2
				v17.6c0,0.2,0,0.2,0.2,0.2h2c0,0,0.2,0,0.2-0.2v-7.6h4.8c0.4,0,0.8,0,1,0c0.4,0,0.6,0.2,0.8,0.2c0.2,0.2,0.4,0.2,0.6,0.6
				c0.2,0.2,0.4,0.6,0.4,1s0.2,0.8,0.2,1.2c0,0.6,0,1,0,1.6s0,1,0.2,1.6c0,0.6,0.2,1,0.4,1.4l0,0c0,0,0,0.2,0.2,0.2h2
				c0.2,0,0.2,0,0.2-0.2v-0.4v-0.2l0,0l-0.2-0.2c0-0.2-0.2-0.2-0.2-0.6c0-0.2-0.2-0.6-0.2-1s0-1,0-1.6c0-0.4,0-1,0-1.4
				c0-0.6-0.2-1-0.4-1.4s-0.4-0.8-0.8-1.2c-0.2-0.2-0.4-0.4-0.6-0.6C-869.4,1567.6-868.8,1567.2-868.6,1566.6z M-870.4,1565.2
				c-0.2,0.4-0.4,0.6-0.8,1c-0.4,0.2-0.8,0.4-1.2,0.6c-0.4,0.2-1,0.2-1.6,0.2h-4.6v-5.8h4.8c0.6,0,1,0,1.4,0.2
				c0.4,0,0.8,0.2,1.2,0.4c0.4,0.2,0.6,0.4,0.8,0.8c0.2,0.4,0.4,0.8,0.4,1.4C-870.2,1564.4-870.2,1564.8-870.4,1565.2z"/>
			<path class="st2" d="M-846,1561C-846,1561-845.8,1561-846,1561l0.2-2c0-0.2,0-0.2-0.2-0.2h-11.8l-0.2,0.2v17.6
				c0,0.2,0,0.2,0.2,0.2h12c0.2,0,0.2,0,0.2-0.2v-1.8c0-0.2,0-0.2-0.2-0.2h-9.8v-6h8.6c0.2,0,0.2,0,0.2-0.2v-1.8
				c0-0.2,0-0.2-0.2-0.2h-8.6v-5.4H-846z"/>
			<g>
				<path class="st1" d="M-1154.2,1497.2c-7.8,0-14,6.2-14,14c0,7.8,6.2,14,14,14c7.8,0,14-6.2,14-14
					C-1140,1503.6-1146.4,1497.2-1154.2,1497.2z"/>
				<path class="st1" d="M-1093,1518.2c-5.6,0-10-4.4-10-10v-21.8c0-10.4-8.4-18.8-18.8-18.8h-65.8c-10.4,0-18.8,8.4-18.8,18.8v21.8
					c0,5.6-4.4,10-10,10c-2.4,0-4.4,2-4.4,4.4s2,4.4,4.4,4.4c5.6,0,10,4.6,10,10v21.8c0,10.4,8.4,18.8,18.8,18.8h65.8
					c10.4,0,18.8-8.4,18.8-18.8V1537c0-5.6,4.4-10,10-10c2.4,0,4.4-2,4.4-4.4C-1088.6,1520.2-1090.6,1518.2-1093,1518.2z"/>
			</g>
		</g>
		<g>
			<g>
				<path class="st2" d="M-1154.2,1533.4c12.2,0,22-9.8,22-22c0-12.2-9.8-22-22-22c-12.2,0-22,9.8-22,22
					C-1176.2,1523.4-1166.2,1533.4-1154.2,1533.4z M-1154.2,1497.2c7.8,0,14,6.2,14,14c0,7.8-6.2,14-14,14c-7.8,0-14-6.2-14-14
					C-1168.2,1503.6-1161.8,1497.2-1154.2,1497.2z"/>
				<path class="st2" d="M-1136,1547h-36c-2.2,0-4,1.8-4,4s1.8,4,4,4h36c2.2,0,4-1.8,4-4S-1133.8,1547-1136,1547z"/>
			</g>
		</g>
	</g>
</g>
</svg>
